<?xml version="1.0" encoding="utf-8"?>
<!-- Generator: Adobe Illustrator 27.3.1, SVG Export Plug-In . SVG Version: 6.00 Build 0)  -->
<svg version="1.1" id="Layer_1" xmlns="http://www.w3.org/2000/svg" xmlns:xlink="http://www.w3.org/1999/xlink" x="0px" y="0px"
	 viewBox="0 0 432 432" style="enable-background:new 0 0 432 432;" xml:space="preserve">
<style type="text/css">
	.st0{fill:#39B54A;}
	.st1{fill:#FFFFFF;}
	.st2{fill:#231F20;}
	.st3{fill:none;stroke:#231F20;stroke-miterlimit:10;}
</style>
<g>
	
		<g id="Layer_2_00000115511074223967736380000017745381947102005406_" transform="matrix(9.168234e-09 0 0 8.920805e-09 42.2766 37.6809)">
	</g>
	<g>
		<g>
			<g>
				<g id="XMLID_00000054974825626899434970000014793282251443976111_">
					<g>
						<polygon class="st0" points="42.3,37.7 42.3,37.7 42.3,37.7 42.3,37.7 42.3,37.7 42.3,37.7 						"/>
						<polygon class="st0" points="42.3,37.7 42.3,37.7 42.3,37.7 42.3,37.7 42.3,37.7 						"/>
						<polygon class="st1" points="42.3,37.7 42.3,37.7 42.3,37.7 42.3,37.7 42.3,37.7 42.3,37.7 						"/>
						<path class="st0" d="M42.3,37.7L42.3,37.7L42.3,37.7L42.3,37.7L42.3,37.7L42.3,37.7L42.3,37.7z M42.3,37.7L42.3,37.7
							L42.3,37.7L42.3,37.7L42.3,37.7L42.3,37.7L42.3,37.7L42.3,37.7L42.3,37.7L42.3,37.7L42.3,37.7L42.3,37.7L42.3,37.7L42.3,37.7
							L42.3,37.7L42.3,37.7L42.3,37.7L42.3,37.7L42.3,37.7L42.3,37.7L42.3,37.7L42.3,37.7L42.3,37.7L42.3,37.7L42.3,37.7L42.3,37.7
							L42.3,37.7L42.3,37.7L42.3,37.7L42.3,37.7L42.3,37.7L42.3,37.7L42.3,37.7L42.3,37.7L42.3,37.7L42.3,37.7L42.3,37.7L42.3,37.7
							L42.3,37.7L42.3,37.7L42.3,37.7L42.3,37.7L42.3,37.7L42.3,37.7L42.3,37.7L42.3,37.7z"/>
						<polygon class="st0" points="42.3,37.7 42.3,37.7 42.3,37.7 42.3,37.7 42.3,37.7 42.3,37.7 						"/>
						<path class="st2" d="M42.3,37.7L42.3,37.7L42.3,37.7L42.3,37.7L42.3,37.7L42.3,37.7L42.3,37.7L42.3,37.7L42.3,37.7L42.3,37.7
							L42.3,37.7L42.3,37.7L42.3,37.7L42.3,37.7L42.3,37.7L42.3,37.7L42.3,37.7L42.3,37.7L42.3,37.7L42.3,37.7L42.3,37.7L42.3,37.7
							L42.3,37.7L42.3,37.7L42.3,37.7L42.3,37.7L42.3,37.7L42.3,37.7L42.3,37.7L42.3,37.7L42.3,37.7L42.3,37.7L42.3,37.7L42.3,37.7
							L42.3,37.7L42.3,37.7L42.3,37.7L42.3,37.7L42.3,37.7L42.3,37.7L42.3,37.7L42.3,37.7L42.3,37.7L42.3,37.7L42.3,37.7L42.3,37.7z
							"/>
						<polygon class="st0" points="42.3,37.7 42.3,37.7 42.3,37.7 42.3,37.7 42.3,37.7 42.3,37.7 42.3,37.7 						"/>
						<polygon class="st0" points="42.3,37.7 42.3,37.7 42.3,37.7 42.3,37.7 42.3,37.7 						"/>
						<polygon class="st1" points="42.3,37.7 42.3,37.7 42.3,37.7 						"/>
					</g>
					<g>
						<line class="st3" x1="42.3" y1="37.7" x2="42.3" y2="37.7"/>
						<polyline class="st3" points="42.3,37.7 42.3,37.7 42.3,37.7 42.3,37.7 						"/>
						<polyline class="st3" points="42.3,37.7 42.3,37.7 42.3,37.7 						"/>
						<line class="st3" x1="42.3" y1="37.7" x2="42.3" y2="37.7"/>
						<polyline class="st3" points="42.3,37.7 42.3,37.7 42.3,37.7 						"/>
						<polyline class="st3" points="42.3,37.7 42.3,37.7 42.3,37.7 42.3,37.7 42.3,37.7 						"/>
						<polyline class="st3" points="42.3,37.7 42.3,37.7 42.3,37.7 						"/>
						<polyline class="st3" points="42.3,37.7 42.3,37.7 42.3,37.7 42.3,37.7 						"/>
						<polyline class="st3" points="42.3,37.7 42.3,37.7 42.3,37.7 42.3,37.7 						"/>
						<polyline class="st3" points="42.3,37.7 42.3,37.7 42.3,37.7 42.3,37.7 						"/>
						<line class="st3" x1="42.3" y1="37.7" x2="42.3" y2="37.7"/>
						<polyline class="st3" points="42.3,37.7 42.3,37.7 42.3,37.7 						"/>
						<line class="st3" x1="42.3" y1="37.7" x2="42.3" y2="37.7"/>
						<line class="st3" x1="42.3" y1="37.7" x2="42.3" y2="37.7"/>
					</g>
				</g>
			</g>
		</g>
	</g>
</g>
<image style="overflow:visible;" width="1000" height="1000" xlink:href="../../Spaceships/Player/Player.png"  transform="matrix(0 0 0 0 42.2766 37.6809)">
</image>
</svg>
