<?xml version="1.0" encoding="utf-8"?>
<!-- Generator: Adobe Illustrator 27.3.1, SVG Export Plug-In . SVG Version: 6.00 Build 0)  -->
<svg version="1.1" id="Layer_1" xmlns="http://www.w3.org/2000/svg" xmlns:xlink="http://www.w3.org/1999/xlink" x="0px" y="0px"
	 viewBox="0 0 432 432" style="enable-background:new 0 0 432 432;" xml:space="preserve">
<style type="text/css">
	.st0{fill:#39B54A;}
	.st1{fill:#FFFFFF;}
	.st2{fill:#231F20;}
	.st3{fill:none;stroke:#231F20;stroke-miterlimit:10;}
</style>
<image style="overflow:visible;" width="1000" height="1000" xlink:href="../../Spaceships/Player/Player.png"  transform="matrix(0.2093 0 0 0.2071 91 133.8582)">
</image>
<g>
	<g>
		<g>
			<g id="XMLID_00000117671527066753283170000003162572515990189722_">
				<g>
					<polygon class="st0" points="341,110.9 291.6,187.8 291.2,187.5 321.4,119 321.4,119 327.5,116.4 340.4,110.9 340.7,110.6 
											"/>
					<polygon class="st0" points="340.7,110.6 340.4,110.9 327.5,116.4 327.3,115.7 321.2,94.4 321.1,94.4 321.1,91.3 					"/>
					<polygon class="st1" points="327.3,115.7 327.5,116.4 321.4,119 321.4,119 321.5,118.8 320.5,118.8 321.1,94.4 321.2,94.4 
											"/>
					<path class="st0" d="M261.2,118.8h59.3h1l-0.1,0.2l-30.2,68.6L261,118.8C261,118.8,261.2,118.8,261.2,118.8z M299.5,149.9
						c0.7-1.2,1-2.4,1-3.7c0-1.3-0.2-2.3-0.7-3.2c-0.5-0.8-1-1.5-1.8-2.1c-0.7-0.5-1.5-1-2.2-1.3c-1.1-0.5-2-0.8-2.9-1.2
						c-0.9-0.3-1.8-0.6-2.7-1c-1.4-0.5-2.4-1.2-2.8-2c-0.5-0.8-0.7-1.7-0.7-2.6c0-1.1,0.5-1.9,1.4-2.6c0.9-0.7,2.2-1.1,3.8-1.1
						c0.5,0,1.1,0,1.5,0.2c0.5,0.1,0.9,0.2,1.3,0.4c0.4,0.2,0.7,0.4,1,0.6c0.1,0.1,0.3,0.2,0.5,0.4s0.3,0.3,0.3,0.5l0.7,3.5h2v-6.6
						c-0.7-0.2-1.5-0.4-2.2-0.5c-0.8-0.2-1.6-0.3-2.5-0.5s-1.8-0.2-2.7-0.2c-1.6,0-3,0.3-4.3,0.9c-1.3,0.6-2.3,1.5-3,2.6
						c-0.8,1.1-1.1,2.3-1.1,3.7c0,1.5,0.4,2.9,1.2,4c0.8,1.1,1.9,1.9,3.3,2.5c0.9,0.4,1.9,0.7,2.8,1.1c1,0.3,2,0.7,2.9,1.1
						c1,0.5,1.9,1,2.5,1.7c0.6,0.7,0.9,1.6,0.9,2.6c0,1.4-0.5,2.5-1.6,3.3s-2.5,1.2-4.3,1.2c-0.6,0-1.2-0.1-1.8-0.2
						c-0.6-0.2-1.1-0.4-1.7-0.6c-0.5-0.3-1-0.5-1.4-0.8c-0.1-0.1-0.3-0.2-0.5-0.4c-0.2-0.2-0.3-0.3-0.3-0.5l-0.7-3.7h-2.1l0.1,6.9
						c0.9,0.2,1.8,0.5,2.8,0.8c0.9,0.3,1.8,0.5,2.7,0.6c0.9,0.2,1.7,0.2,2.5,0.2c2.3,0,4.2-0.4,5.6-1.1
						C297.8,152.1,298.8,151.1,299.5,149.9z"/>
					<polygon class="st0" points="321.1,91.3 321.1,94.4 320.5,118.8 261.2,118.8 261,118.7 261.6,92.5 261.6,91 320.8,91 					"/>
					<path class="st2" d="M300.5,146.2c0,1.3-0.3,2.6-1,3.7c-0.7,1.2-1.7,2.1-3.1,2.9s-3.3,1.1-5.6,1.1c-0.8,0-1.6-0.1-2.5-0.2
						c-0.9-0.2-1.8-0.4-2.7-0.6s-1.8-0.5-2.8-0.8l-0.1-6.9h2.1l0.7,3.7c0,0.2,0.1,0.3,0.3,0.5c0.2,0.2,0.3,0.3,0.5,0.4
						c0.4,0.3,0.9,0.6,1.4,0.8c0.5,0.3,1.1,0.5,1.7,0.6c0.6,0.2,1.2,0.2,1.8,0.2c1.8,0,3.2-0.4,4.3-1.2c1-0.8,1.6-1.9,1.6-3.3
						c0-1.1-0.3-2-0.9-2.6c-0.6-0.7-1.4-1.3-2.5-1.7c-1-0.4-2-0.8-2.9-1.1c-1-0.3-1.9-0.7-2.8-1.1c-1.4-0.6-2.5-1.4-3.3-2.5
						c-0.8-1.1-1.2-2.4-1.2-4c0-1.4,0.4-2.6,1.1-3.7c0.7-1.1,1.8-1.9,3-2.6c1.3-0.6,2.7-0.9,4.3-0.9c1,0,1.9,0.1,2.7,0.2
						c0.9,0.1,1.7,0.3,2.5,0.5c0.8,0.2,1.5,0.4,2.2,0.5v6.6h-2l-0.7-3.5c0-0.2-0.1-0.3-0.3-0.5c-0.2-0.2-0.3-0.3-0.5-0.4
						c-0.3-0.2-0.6-0.4-1-0.6c-0.4-0.2-0.8-0.3-1.3-0.4c-0.5-0.1-1-0.2-1.5-0.2c-1.6,0-2.9,0.4-3.8,1.1c-0.9,0.7-1.4,1.6-1.4,2.6
						c0,0.9,0.2,1.8,0.7,2.6c0.5,0.8,1.4,1.5,2.8,2c0.9,0.3,1.8,0.7,2.7,1c0.9,0.3,1.9,0.7,2.9,1.2c0.8,0.3,1.5,0.8,2.2,1.3
						c0.7,0.5,1.3,1.2,1.8,2.1C300.2,143.9,300.5,144.9,300.5,146.2z"/>
					<polygon class="st0" points="291.6,187.8 291.2,188.3 241.5,110.9 242.1,110.3 242.6,110.9 254.6,116 261,118.7 261,118.8 
						291.2,187.5 					"/>
					<polygon class="st0" points="261.6,91 261.6,92.5 261.3,92.5 254.7,115.6 254.6,116 242.6,110.9 242.1,110.3 					"/>
					<polygon class="st1" points="261.6,92.5 261,118.7 254.6,116 254.7,115.6 261.3,92.5 					"/>
				</g>
				<g>
					<line class="st3" x1="261.6" y1="91" x2="320.8" y2="91"/>
					<polyline class="st3" points="320.8,91 321.1,91.3 340.7,110.6 341,110.9 					"/>
					<polyline class="st3" points="261.6,91 242.1,110.3 241.5,110.9 					"/>
					<line class="st3" x1="241.5" y1="110.9" x2="291.2" y2="188.3"/>
					<polyline class="st3" points="341,110.9 291.6,187.8 291.2,188.3 					"/>
					<polyline class="st3" points="242.6,110.9 254.6,116 261,118.7 261.2,118.8 261.6,119 					"/>
					<polyline class="st3" points="340.4,110.9 327.5,116.4 321.4,119 					"/>
					<polyline class="st3" points="261,118.8 261.2,118.8 320.5,118.8 321.5,118.8 					"/>
					<polyline class="st3" points="261.6,91 261.6,92.5 261,118.7 261,118.8 					"/>
					<polyline class="st3" points="321.1,91 321.1,91.3 321.1,94.4 320.5,118.8 					"/>
					<line class="st3" x1="261" y1="118.8" x2="291.2" y2="187.5"/>
					<polyline class="st3" points="321.5,118.8 321.4,119 291.2,187.5 					"/>
					<line class="st3" x1="261.3" y1="92.5" x2="254.7" y2="115.6"/>
					<line class="st3" x1="321.2" y1="94.4" x2="327.3" y2="115.7"/>
				</g>
			</g>
		</g>
	</g>
</g>
</svg>
