<?xml version="1.0" encoding="utf-8"?>
<!-- Generator: Adobe Illustrator 27.3.1, SVG Export Plug-In . SVG Version: 6.00 Build 0)  -->
<svg version="1.1" xmlns="http://www.w3.org/2000/svg" xmlns:xlink="http://www.w3.org/1999/xlink" x="0px" y="0px"
	 viewBox="0 0 432 904" style="enable-background:new 0 0 432 904;" xml:space="preserve">
<style type="text/css">
	.st0{fill:#39B54A;}
	.st1{fill:#FFFFFF;}
	.st2{fill:none;stroke:#231F20;stroke-width:4;stroke-miterlimit:10;}
	.st3{fill:#231F20;}
</style>
<g id="Layer_1">
	<g>
		<g id="XMLID_00000024679989478799950880000006187094383574312838_">
			<g>
				<polygon class="st0" points="291,407.68 216.49,526.22 216,525.77 261.43,420.12 261.44,420.13 270.72,416.08 290.16,407.6 
					290.48,407.15 				"/>
				<polygon class="st0" points="290.48,407.15 290.16,407.6 270.72,416.08 270.39,414.99 261.17,382.16 260.96,382.16 
					261.07,377.47 				"/>
				<polygon class="st0" points="170.71,419.82 260.12,419.82 261.56,419.82 261.43,420.12 216,525.77 170.44,419.82 				"/>
				<polygon class="st0" points="261.07,377.47 260.96,382.16 260.12,419.82 170.71,419.82 170.45,419.71 171.35,379.34 171.4,377 
					260.6,377 				"/>
				<polygon class="st0" points="160.76,415.49 170.45,419.71 170.44,419.82 216,525.77 216.49,526.22 216,527 141,407.68 
					171.4,377 171.35,379.34 170.92,379.33 160.95,414.83 				"/>
				<polygon class="st1" points="171.35,379.34 170.45,419.71 160.76,415.49 160.95,414.83 170.92,379.33 				"/>
			</g>
			<g>
				<line class="st2" x1="171.4" y1="377" x2="260.6" y2="377"/>
				<polyline class="st2" points="260.6,377 261.07,377.47 290.48,407.15 291,407.68 				"/>
				<line class="st2" x1="171.4" y1="377" x2="141" y2="407.68"/>
				<line class="st2" x1="141" y1="407.68" x2="216" y2="527"/>
				<polyline class="st2" points="291,407.68 216.49,526.22 216,527 				"/>
				<polyline class="st2" points="142.68,407.6 160.76,415.49 170.45,419.71 170.71,419.82 171.4,420.13 				"/>
				<polyline class="st2" points="290.16,407.6 270.72,416.08 261.44,420.13 				"/>
				<polyline class="st2" points="170.44,419.82 170.71,419.82 260.12,419.82 261.56,419.82 				"/>
				<polyline class="st2" points="171.4,377 171.35,379.34 170.45,419.71 170.44,419.82 				"/>
				<polyline class="st2" points="261.08,377 261.07,377.47 260.96,382.16 260.12,419.82 				"/>
				<line class="st2" x1="170.44" y1="419.82" x2="216" y2="525.77"/>
				<polyline class="st2" points="261.56,419.82 261.43,420.12 216,525.77 				"/>
				<line class="st2" x1="170.92" y1="379.33" x2="160.95" y2="414.83"/>
				<line class="st2" x1="261.17" y1="382.16" x2="270.39" y2="414.99"/>
			</g>
		</g>
		<g>
			<g>
				<path class="st3" d="M204.09,470.46l-0.14-9.8h2.77l0.99,5.3c0.05,0.24,0.19,0.48,0.43,0.72c0.24,0.24,0.45,0.43,0.62,0.56
					c0.59,0.41,1.24,0.8,1.95,1.18c0.7,0.37,1.45,0.68,2.24,0.91c0.79,0.23,1.6,0.35,2.43,0.35c2.44,0,4.36-0.58,5.75-1.74
					c1.39-1.16,2.09-2.75,2.09-4.76c0-1.52-0.41-2.77-1.24-3.76c-0.83-0.99-1.94-1.8-3.34-2.43c-1.35-0.61-2.67-1.14-3.98-1.57
					c-1.31-0.44-2.59-0.93-3.84-1.5c-1.9-0.85-3.38-2.06-4.46-3.61c-1.08-1.55-1.62-3.43-1.62-5.63c0-1.98,0.5-3.74,1.52-5.29
					c1.01-1.54,2.38-2.77,4.1-3.66c1.72-0.9,3.65-1.35,5.78-1.35c1.28,0,2.51,0.08,3.67,0.26c1.17,0.17,2.28,0.38,3.34,0.64
					c1.06,0.26,2.06,0.51,3.02,0.77v9.39h-2.75l-0.94-5.01c-0.05-0.24-0.19-0.47-0.42-0.7s-0.45-0.41-0.63-0.55
					c-0.36-0.29-0.8-0.56-1.33-0.81c-0.53-0.25-1.11-0.45-1.75-0.6c-0.64-0.15-1.33-0.23-2.06-0.23c-2.22,0-3.95,0.51-5.18,1.54
					c-1.23,1.02-1.84,2.28-1.84,3.76c0,1.33,0.33,2.57,1,3.73s1.94,2.11,3.84,2.88c1.25,0.5,2.48,0.97,3.69,1.41
					c1.2,0.45,2.52,0.99,3.95,1.64c1.05,0.48,2.06,1.1,3.02,1.87s1.75,1.75,2.37,2.96s0.93,2.7,0.93,4.49
					c0,1.86-0.45,3.63-1.34,5.31c-0.89,1.68-2.3,3.05-4.23,4.11c-1.93,1.06-4.45,1.59-7.56,1.59c-1.08,0-2.22-0.12-3.43-0.36
					c-1.2-0.24-2.44-0.54-3.69-0.9C206.55,471.18,205.31,470.82,204.09,470.46z"/>
			</g>
		</g>
		<g>
			<g>
				<path d="M167.07,549.93c-0.47-0.11-0.91-0.28-1.31-0.5c-0.41-0.22-0.79-0.5-1.14-0.83l0.95-1.29c0.41,0.4,0.87,0.7,1.37,0.9
					c0.5,0.2,1.04,0.3,1.62,0.3c0.79,0,1.4-0.16,1.83-0.49c0.43-0.32,0.65-0.78,0.65-1.37v-0.01c0-0.42-0.1-0.75-0.29-1
					c-0.2-0.25-0.45-0.43-0.76-0.55c-0.31-0.12-0.71-0.23-1.21-0.33c-0.01-0.01-0.03-0.01-0.05-0.01c-0.02,0-0.03,0-0.05-0.01
					l-0.11-0.03c-0.73-0.14-1.32-0.29-1.77-0.47c-0.46-0.17-0.85-0.49-1.17-0.95c-0.32-0.46-0.49-1.12-0.49-1.97v-0.01
					c0-0.75,0.15-1.38,0.45-1.91s0.74-0.93,1.32-1.21s1.27-0.42,2.08-0.42c0.39,0,0.77,0.05,1.15,0.14
					c0.38,0.09,0.75,0.23,1.11,0.42c0.37,0.18,0.73,0.42,1.08,0.7l-0.87,1.34c-0.41-0.34-0.83-0.59-1.24-0.76
					c-0.41-0.17-0.82-0.25-1.24-0.25c-0.74,0-1.32,0.17-1.73,0.49c-0.41,0.33-0.62,0.79-0.62,1.4v0.01c0,0.41,0.11,0.74,0.32,0.98
					c0.21,0.24,0.48,0.41,0.79,0.53c0.32,0.11,0.76,0.23,1.32,0.35c0.02,0,0.04,0.01,0.06,0.01c0.02,0,0.04,0.01,0.06,0.01
					c0.02,0.01,0.05,0.01,0.08,0.02c0.03,0.01,0.06,0.01,0.08,0.02c0.66,0.15,1.21,0.33,1.65,0.53c0.44,0.2,0.81,0.54,1.11,0.99
					c0.3,0.46,0.44,1.08,0.44,1.87v0.02c0,0.74-0.16,1.36-0.47,1.89c-0.31,0.52-0.77,0.92-1.36,1.19c-0.6,0.27-1.31,0.41-2.15,0.41
					C168.04,550.09,167.54,550.04,167.07,549.93z"/>
				<path d="M175.81,549.66c-0.48-0.29-0.84-0.72-1.09-1.28s-0.38-1.24-0.38-2.03v-1.4c0-0.78,0.13-1.45,0.38-2s0.62-0.98,1.09-1.27
					c0.48-0.29,1.05-0.44,1.73-0.44c0.67,0,1.25,0.15,1.73,0.44c0.48,0.29,0.84,0.71,1.09,1.27s0.38,1.22,0.38,2v1.43
					c0,0.79-0.13,1.46-0.38,2.01s-0.62,0.98-1.09,1.27c-0.48,0.29-1.05,0.44-1.73,0.44C176.86,550.09,176.29,549.95,175.81,549.66z
					 M178.77,547.93c0.29-0.37,0.44-0.89,0.44-1.56v-1.43c0-0.67-0.15-1.19-0.44-1.55c-0.29-0.37-0.7-0.55-1.24-0.55
					s-0.94,0.18-1.24,0.55c-0.29,0.37-0.44,0.88-0.44,1.55v1.43c0,0.67,0.15,1.19,0.44,1.56c0.29,0.37,0.7,0.56,1.24,0.56
					S178.48,548.3,178.77,547.93z"/>
				<path d="M184.42,547.75c0,0.21,0.04,0.37,0.12,0.49s0.2,0.17,0.35,0.17h0.72v1.61h-0.9c-0.58,0-1.02-0.2-1.34-0.6
					c-0.32-0.4-0.47-0.96-0.47-1.68v-9.82h1.52V547.75z"/>
				<path d="M188.57,549.66c-0.48-0.29-0.84-0.72-1.09-1.28s-0.38-1.24-0.38-2.03v-1.4c0-0.78,0.13-1.45,0.38-2s0.62-0.98,1.09-1.27
					c0.48-0.29,1.05-0.44,1.73-0.44c0.67,0,1.25,0.15,1.73,0.44c0.48,0.29,0.84,0.71,1.09,1.27s0.38,1.22,0.38,2v1.43
					c0,0.79-0.13,1.46-0.38,2.01s-0.62,0.98-1.09,1.27c-0.48,0.29-1.05,0.44-1.73,0.44C189.63,550.09,189.05,549.95,188.57,549.66z
					 M191.54,547.93c0.29-0.37,0.44-0.89,0.44-1.56v-1.43c0-0.67-0.15-1.19-0.44-1.55c-0.29-0.37-0.7-0.55-1.24-0.55
					s-0.94,0.18-1.24,0.55c-0.29,0.37-0.44,0.88-0.44,1.55v1.43c0,0.67,0.15,1.19,0.44,1.56c0.29,0.37,0.7,0.56,1.24,0.56
					S191.24,548.3,191.54,547.93z"/>
				<path d="M196.67,549.71c-0.4-0.27-0.71-0.67-0.92-1.2s-0.31-1.16-0.31-1.89v-1.9c0-0.74,0.1-1.37,0.31-1.9
					c0.2-0.53,0.5-0.92,0.89-1.2c0.39-0.27,0.86-0.41,1.41-0.41c0.46,0,0.88,0.13,1.26,0.4c0.38,0.26,0.69,0.64,0.92,1.12
					l-0.16,1.76c0-0.36-0.06-0.68-0.18-0.94c-0.12-0.26-0.29-0.46-0.52-0.59s-0.5-0.2-0.83-0.2c-0.5,0-0.89,0.17-1.17,0.52
					s-0.41,0.84-0.41,1.47v1.88c0,0.62,0.14,1.11,0.41,1.45c0.28,0.34,0.67,0.51,1.17,0.51c0.32,0,0.6-0.07,0.83-0.21
					c0.23-0.14,0.4-0.34,0.52-0.61s0.18-0.58,0.18-0.95l0.1,1.82c-0.15,0.43-0.41,0.78-0.76,1.07c-0.35,0.29-0.78,0.43-1.3,0.43
					C197.55,550.12,197.07,549.98,196.67,549.71z M196.7,553.11c-0.46-0.24-0.82-0.58-1.07-1.02l1.03-1.04
					c0.2,0.3,0.44,0.54,0.71,0.71c0.28,0.17,0.57,0.25,0.87,0.25c0.58,0,1.03-0.18,1.35-0.54s0.48-0.86,0.48-1.51v-8.6h1.52v8.35
					c0,0.79-0.13,1.47-0.39,2.03c-0.26,0.56-0.64,0.99-1.14,1.29c-0.5,0.29-1.1,0.44-1.8,0.44
					C197.68,553.47,197.16,553.35,196.7,553.11z"/>
				<path d="M205.24,549.65c-0.51-0.3-0.9-0.74-1.16-1.32c-0.27-0.58-0.4-1.28-0.4-2.09v-0.97c0-0.85,0.13-1.58,0.38-2.18
					c0.26-0.6,0.63-1.06,1.12-1.38c0.49-0.31,1.08-0.47,1.76-0.47c0.65,0,1.2,0.18,1.66,0.54c0.46,0.36,0.81,0.88,1.05,1.56
					c0.24,0.68,0.36,1.5,0.36,2.45v0.56h-5.23v-1.36h3.78c-0.04-0.7-0.21-1.25-0.49-1.64c-0.28-0.39-0.66-0.58-1.13-0.58
					c-0.58,0-1.02,0.21-1.34,0.63c-0.32,0.42-0.47,1.01-0.47,1.78v1.09c0,0.71,0.17,1.26,0.51,1.64c0.34,0.38,0.82,0.57,1.44,0.57
					c0.31,0,0.61-0.07,0.92-0.21c0.3-0.14,0.57-0.33,0.81-0.58l1,1.11c-0.38,0.41-0.81,0.73-1.29,0.95
					c-0.48,0.22-0.96,0.34-1.44,0.34C206.37,550.09,205.75,549.95,205.24,549.65z"/>
				<path d="M212.11,541.36h1.52v8.61h-1.52V541.36z M216.74,544.75c0-0.61-0.13-1.08-0.4-1.41s-0.65-0.5-1.14-0.5
					c-0.5,0-0.88,0.15-1.15,0.44c-0.27,0.29-0.41,0.71-0.41,1.24l-0.16-1.66c0.24-0.52,0.55-0.92,0.94-1.2
					c0.39-0.28,0.81-0.42,1.28-0.42c0.54,0,1.01,0.14,1.39,0.41c0.38,0.27,0.68,0.67,0.88,1.2c0.2,0.53,0.3,1.16,0.3,1.9v5.23h-1.52
					V544.75z M221.37,544.75c0-0.61-0.14-1.08-0.43-1.41s-0.68-0.5-1.2-0.5c-0.47,0-0.84,0.16-1.1,0.48
					c-0.26,0.32-0.39,0.77-0.39,1.36l-0.31-1.66c0.24-0.57,0.57-1.01,0.97-1.32c0.4-0.31,0.84-0.47,1.33-0.47
					c0.56,0,1.03,0.14,1.43,0.41c0.4,0.27,0.7,0.67,0.9,1.2c0.21,0.53,0.31,1.16,0.31,1.9v5.23h-1.52V544.75z"/>
				<path d="M236.89,543.47v2.11c0,0.9-0.16,1.69-0.47,2.37c-0.31,0.68-0.76,1.21-1.33,1.58c-0.58,0.37-1.24,0.56-2,0.56
					c-0.77,0-1.44-0.17-2.02-0.53s-1.03-0.85-1.35-1.49c-0.32-0.64-0.48-1.39-0.48-2.23v-3.56c0-0.9,0.16-1.68,0.47-2.36
					s0.76-1.21,1.33-1.58c0.58-0.37,1.24-0.56,2-0.56c0.62,0,1.2,0.15,1.72,0.44s0.96,0.71,1.32,1.26c0.35,0.54,0.59,1.17,0.72,1.88
					h-1.65c-0.09-0.4-0.24-0.75-0.46-1.04s-0.47-0.51-0.75-0.66c-0.29-0.15-0.59-0.23-0.9-0.23c-0.45,0-0.84,0.12-1.18,0.36
					c-0.34,0.24-0.6,0.57-0.78,1c-0.18,0.43-0.28,0.93-0.28,1.5v3.56c0,0.52,0.09,0.97,0.28,1.36c0.19,0.39,0.46,0.69,0.8,0.91
					c0.35,0.21,0.75,0.32,1.2,0.32c0.45,0,0.84-0.11,1.18-0.34c0.34-0.22,0.6-0.55,0.78-0.97c0.18-0.43,0.28-0.93,0.28-1.52v-0.52
					h-2.2v-1.62H236.89z"/>
				<path d="M239.54,549.44c-0.47-0.44-0.71-1.11-0.71-2c0-0.85,0.22-1.49,0.65-1.92s1.09-0.64,1.96-0.64h2.2l0.1,1.36h-2.3
					c-0.4,0-0.7,0.1-0.89,0.29c-0.2,0.2-0.29,0.5-0.29,0.9c0,0.44,0.13,0.76,0.39,0.97c0.26,0.21,0.66,0.32,1.19,0.32
					c0.58,0,1.02-0.07,1.3-0.21c0.29-0.14,0.43-0.35,0.43-0.65l0.16,1.21c-0.13,0.23-0.3,0.42-0.5,0.57
					c-0.2,0.15-0.42,0.26-0.68,0.34c-0.26,0.07-0.55,0.11-0.88,0.11C240.73,550.09,240.01,549.88,239.54,549.44z M243.58,544.51
					c0-0.56-0.13-1-0.41-1.32c-0.27-0.31-0.66-0.47-1.15-0.47c-0.31,0-0.61,0.05-0.91,0.16c-0.3,0.1-0.56,0.25-0.79,0.44l-1.11-0.85
					c0.29-0.39,0.68-0.7,1.16-0.92s1.01-0.33,1.6-0.33c0.64,0,1.19,0.13,1.65,0.38c0.46,0.25,0.81,0.62,1.05,1.09
					c0.24,0.48,0.36,1.06,0.36,1.73v5.53h-1.45V544.51z"/>
				<path d="M247.35,541.36h1.52v8.61h-1.52V541.36z M251.98,544.75c0-0.61-0.13-1.08-0.4-1.41c-0.27-0.33-0.65-0.5-1.14-0.5
					c-0.5,0-0.88,0.15-1.15,0.44c-0.27,0.29-0.41,0.71-0.41,1.24l-0.16-1.66c0.24-0.52,0.55-0.92,0.94-1.2
					c0.39-0.28,0.81-0.42,1.28-0.42c0.54,0,1.01,0.14,1.39,0.41c0.38,0.27,0.68,0.67,0.88,1.2c0.2,0.53,0.3,1.16,0.3,1.9v5.23h-1.52
					V544.75z M256.61,544.75c0-0.61-0.14-1.08-0.43-1.41c-0.28-0.33-0.68-0.5-1.19-0.5c-0.47,0-0.84,0.16-1.1,0.48
					c-0.26,0.32-0.39,0.77-0.39,1.36l-0.31-1.66c0.24-0.57,0.57-1.01,0.97-1.32c0.4-0.31,0.84-0.47,1.33-0.47
					c0.56,0,1.03,0.14,1.43,0.41c0.4,0.27,0.7,0.67,0.9,1.2s0.31,1.16,0.31,1.9v5.23h-1.52V544.75z"/>
				<path d="M261.78,549.65c-0.51-0.3-0.9-0.74-1.16-1.32c-0.27-0.58-0.4-1.28-0.4-2.09v-0.97c0-0.85,0.13-1.58,0.38-2.18
					c0.26-0.6,0.63-1.06,1.12-1.38c0.49-0.31,1.08-0.47,1.76-0.47c0.65,0,1.2,0.18,1.66,0.54c0.46,0.36,0.81,0.88,1.05,1.56
					c0.24,0.68,0.36,1.5,0.36,2.45v0.56h-5.23v-1.36h3.78c-0.04-0.7-0.21-1.25-0.49-1.64c-0.28-0.39-0.66-0.58-1.13-0.58
					c-0.58,0-1.02,0.21-1.34,0.63c-0.32,0.42-0.47,1.01-0.47,1.78v1.09c0,0.71,0.17,1.26,0.51,1.64s0.82,0.57,1.44,0.57
					c0.31,0,0.62-0.07,0.92-0.21s0.58-0.33,0.81-0.58l1,1.11c-0.38,0.41-0.81,0.73-1.29,0.95c-0.48,0.22-0.96,0.34-1.44,0.34
					C262.9,550.09,262.29,549.95,261.78,549.65z"/>
				<path d="M270.1,549.95c-0.4-0.1-0.78-0.25-1.12-0.45s-0.67-0.45-0.96-0.75l0.9-1.24c0.42,0.35,0.83,0.62,1.25,0.8
					s0.82,0.27,1.22,0.27c0.6,0,1.05-0.1,1.36-0.31c0.3-0.21,0.45-0.52,0.45-0.93c0-0.28-0.08-0.48-0.25-0.62
					c-0.16-0.14-0.37-0.23-0.61-0.28s-0.59-0.09-1.03-0.13c-0.04,0-0.08,0-0.13,0s-0.09-0.01-0.13-0.01c-0.02,0-0.04,0-0.06,0
					s-0.04,0-0.06,0c-0.5-0.04-0.93-0.12-1.28-0.24s-0.64-0.34-0.87-0.67s-0.35-0.79-0.35-1.4s0.11-1.11,0.34-1.52
					c0.22-0.4,0.56-0.71,1-0.91c0.44-0.2,1-0.3,1.67-0.3c0.4,0,0.79,0.04,1.15,0.12c0.37,0.08,0.72,0.21,1.05,0.37
					c0.33,0.16,0.66,0.37,0.96,0.62l-0.92,1.24c-0.39-0.28-0.77-0.48-1.15-0.62c-0.38-0.14-0.74-0.21-1.1-0.21
					c-0.52,0-0.91,0.1-1.17,0.29c-0.26,0.2-0.39,0.49-0.39,0.88c0,0.23,0.07,0.41,0.22,0.52c0.15,0.12,0.33,0.19,0.56,0.23
					c0.22,0.04,0.54,0.07,0.96,0.1c0.03,0.01,0.06,0.01,0.09,0.01s0.07,0,0.1,0.01c0.02,0,0.03,0,0.04,0c0.02,0,0.03,0,0.04,0.01
					c0.54,0.04,1,0.12,1.39,0.24c0.38,0.12,0.7,0.36,0.96,0.72c0.26,0.36,0.39,0.88,0.39,1.56c0,0.62-0.12,1.13-0.36,1.54
					c-0.24,0.41-0.6,0.71-1.08,0.92c-0.48,0.21-1.08,0.31-1.81,0.31C270.93,550.09,270.5,550.04,270.1,549.95z"/>
			</g>
		</g>
	</g>
</g>
<g id="Layer_2">
</g>
</svg>
