<?xml version="1.0" encoding="utf-8"?>
<!-- Generator: Adobe Illustrator 27.3.1, SVG Export Plug-In . SVG Version: 6.00 Build 0)  -->
<svg version="1.1" id="Layer_1" xmlns="http://www.w3.org/2000/svg" xmlns:xlink="http://www.w3.org/1999/xlink" x="0px" y="0px"
	 viewBox="0 0 192 192" style="enable-background:new 0 0 192 192;" xml:space="preserve">
<style type="text/css">
	.st0{fill:#39B54A;}
	.st1{fill:#FFFFFF;}
	.st2{fill:#231F20;}
	.st3{fill:none;stroke:#231F20;stroke-width:3;stroke-miterlimit:10;}
</style>
<g>
	<g>
		<g id="XMLID_00000088844599215918776140000008132897063894899628_">
			<g>
				<polygon class="st0" points="163,65.38 96.44,147.28 96,146.97 136.59,73.97 136.59,73.98 144.88,71.19 162.25,65.33 
					162.54,65.01 				"/>
				<polygon class="st0" points="162.54,65.01 162.25,65.33 144.88,71.19 144.59,70.43 136.35,47.75 136.17,47.75 136.26,44.51 				
					"/>
				<polygon class="st1" points="144.59,70.43 144.88,71.19 136.59,73.98 136.59,73.97 136.7,73.77 135.41,73.77 136.17,47.75 
					136.35,47.75 				"/>
				<path class="st0" d="M55.54,73.77h79.87h1.29l-0.11,0.21L96,146.97l-40.7-73.2H55.54z M107.13,106.93
					c0.89-1.26,1.33-2.58,1.33-3.98c0-1.34-0.31-2.46-0.93-3.36s-1.4-1.64-2.37-2.21c-0.96-0.57-1.96-1.04-3.01-1.4
					c-1.43-0.49-2.74-0.9-3.94-1.23c-1.21-0.33-2.43-0.68-3.68-1.05c-1.89-0.57-3.17-1.29-3.83-2.15c-0.67-0.87-1-1.79-1-2.79
					c0-1.12,0.61-2.05,1.84-2.82c1.22-0.77,2.95-1.15,5.17-1.15c0.74,0,1.42,0.05,2.06,0.17c0.64,0.11,1.22,0.26,1.75,0.45
					c0.52,0.19,0.96,0.39,1.32,0.61c0.19,0.1,0.4,0.24,0.64,0.41c0.24,0.17,0.38,0.35,0.42,0.53l0.94,3.75h2.74v-7.03
					c-0.96-0.19-1.96-0.39-3.01-0.58c-1.06-0.19-2.17-0.35-3.33-0.48c-1.16-0.13-2.38-0.19-3.66-0.19c-2.12,0-4.05,0.34-5.76,1.01
					c-1.72,0.67-3.09,1.58-4.09,2.74c-1.01,1.16-1.51,2.47-1.51,3.95c0,1.65,0.54,3.06,1.62,4.22c1.07,1.16,2.56,2.06,4.45,2.7
					c1.25,0.42,2.53,0.79,3.83,1.12c1.31,0.33,2.63,0.72,3.97,1.18c1.39,0.48,2.5,1.08,3.33,1.82c0.82,0.74,1.24,1.68,1.24,2.81
					c0,1.51-0.7,2.69-2.09,3.56c-1.39,0.87-3.3,1.3-5.74,1.3c-0.82,0-1.63-0.09-2.42-0.26c-0.79-0.17-1.54-0.4-2.24-0.68
					c-0.7-0.28-1.35-0.57-1.94-0.88c-0.18-0.1-0.39-0.24-0.62-0.42c-0.24-0.18-0.39-0.36-0.43-0.54l-0.99-3.96h-2.76l0.14,7.34
					c1.22,0.26,2.45,0.53,3.71,0.81c1.25,0.27,2.48,0.49,3.68,0.67c1.21,0.18,2.35,0.26,3.43,0.26c3.11,0,5.62-0.39,7.54-1.19
					C104.84,109.21,106.24,108.18,107.13,106.93z"/>
				<polygon class="st0" points="136.26,44.51 136.17,47.75 135.41,73.77 55.54,73.77 55.31,73.69 56.12,45.8 56.16,44.18 
					135.84,44.18 				"/>
				<path class="st2" d="M108.47,102.95c0,1.39-0.44,2.72-1.33,3.98c-0.89,1.26-2.3,2.28-4.22,3.07c-1.92,0.79-4.44,1.19-7.54,1.19
					c-1.08,0-2.22-0.09-3.43-0.26c-1.2-0.18-2.43-0.4-3.68-0.67c-1.25-0.27-2.49-0.54-3.71-0.81l-0.14-7.34h2.76l0.99,3.96
					c0.04,0.18,0.19,0.36,0.43,0.54c0.24,0.18,0.45,0.32,0.62,0.42c0.59,0.3,1.24,0.6,1.94,0.88c0.71,0.28,1.46,0.51,2.24,0.68
					c0.79,0.17,1.6,0.26,2.42,0.26c2.44,0,4.36-0.43,5.74-1.3c1.39-0.87,2.09-2.05,2.09-3.56c0-1.13-0.42-2.08-1.24-2.81
					c-0.83-0.74-1.94-1.34-3.33-1.82c-1.35-0.46-2.67-0.85-3.97-1.18c-1.31-0.33-2.58-0.7-3.83-1.12c-1.89-0.64-3.38-1.54-4.45-2.7
					c-1.08-1.16-1.62-2.57-1.62-4.22c0-1.48,0.5-2.8,1.51-3.95c1-1.16,2.37-2.07,4.09-2.74c1.72-0.67,3.64-1.01,5.76-1.01
					c1.28,0,2.5,0.06,3.66,0.19c1.17,0.13,2.28,0.29,3.33,0.48c1.06,0.19,2.06,0.39,3.01,0.58v7.03h-2.74l-0.94-3.75
					c-0.04-0.18-0.18-0.35-0.42-0.53c-0.24-0.17-0.44-0.31-0.64-0.41c-0.36-0.22-0.8-0.42-1.32-0.61c-0.53-0.18-1.11-0.34-1.75-0.45
					c-0.64-0.12-1.32-0.17-2.06-0.17c-2.22,0-3.94,0.38-5.17,1.15c-1.23,0.77-1.84,1.7-1.84,2.82c0,1,0.33,1.92,1,2.79
					c0.66,0.86,1.94,1.58,3.83,2.15c1.25,0.37,2.47,0.72,3.68,1.05c1.2,0.33,2.51,0.74,3.94,1.23c1.04,0.35,2.05,0.82,3.01,1.4
					c0.97,0.57,1.75,1.31,2.37,2.21S108.47,101.61,108.47,102.95z"/>
				<polygon class="st0" points="96.44,147.28 96,147.81 29,65.38 29.89,64.69 30.51,65.33 46.65,70.77 55.31,73.69 55.3,73.77 
					96,146.97 				"/>
				<polygon class="st0" points="56.16,44.18 56.12,45.8 55.73,45.79 46.83,70.32 46.65,70.77 30.51,65.33 29.89,64.69 				"/>
				<polygon class="st1" points="56.12,45.8 55.31,73.69 46.65,70.77 46.83,70.32 55.73,45.79 				"/>
			</g>
			<g>
				<line class="st3" x1="56.16" y1="44.18" x2="135.84" y2="44.18"/>
				<polyline class="st3" points="135.84,44.18 136.26,44.51 162.54,65.01 163,65.38 				"/>
				<polyline class="st3" points="56.16,44.18 29.89,64.69 29,65.38 				"/>
				<line class="st3" x1="29" y1="65.38" x2="96" y2="147.81"/>
				<polyline class="st3" points="163,65.38 96.44,147.28 96,147.81 				"/>
				<polyline class="st3" points="30.51,65.33 46.65,70.77 55.31,73.69 55.54,73.77 56.16,73.98 				"/>
				<polyline class="st3" points="162.25,65.33 144.88,71.19 136.59,73.98 				"/>
				<polyline class="st3" points="55.3,73.77 55.54,73.77 135.41,73.77 136.7,73.77 				"/>
				<polyline class="st3" points="56.16,44.18 56.12,45.8 55.31,73.69 55.3,73.77 				"/>
				<polyline class="st3" points="136.27,44.18 136.26,44.51 136.17,47.75 135.41,73.77 				"/>
				<line class="st3" x1="55.3" y1="73.77" x2="96" y2="146.97"/>
				<polyline class="st3" points="136.7,73.77 136.59,73.97 96,146.97 				"/>
				<line class="st3" x1="55.73" y1="45.79" x2="46.83" y2="70.32"/>
				<line class="st3" x1="136.35" y1="47.75" x2="144.59" y2="70.43"/>
			</g>
		</g>
	</g>
</g>
</svg>
