<?xml version="1.0" encoding="utf-8"?>
<!-- Generator: Adobe Illustrator 27.3.1, SVG Export Plug-In . SVG Version: 6.00 Build 0)  -->
<svg version="1.1" id="Layer_1" xmlns="http://www.w3.org/2000/svg" xmlns:xlink="http://www.w3.org/1999/xlink" x="0px" y="0px"
	 viewBox="0 0 432 432" style="enable-background:new 0 0 432 432;" xml:space="preserve">
<style type="text/css">
	.st0{fill:none;stroke:#FFFFFF;stroke-width:5;stroke-miterlimit:10;}
	.st1{fill:#FFFFFF;}
	.st2{fill:none;stroke:#FFFFFF;stroke-width:2;stroke-miterlimit:10;}
	.st3{fill:#939598;stroke:#231F20;stroke-width:0.1;stroke-miterlimit:10;}
	.st4{fill:#6D6E71;}
	.st5{fill:none;stroke:#231F20;stroke-width:0.1;stroke-miterlimit:10;}
	.st6{fill:#FFFFFF;stroke:#231F20;stroke-width:0.1;stroke-miterlimit:10;}
</style>
<line class="st0" x1="179.8" y1="101.5" x2="249" y2="319.5"/>
<g>
	<path class="st1" d="M269.4,306.5c3.9,17.5-22.3,30-35.7,20.9c-6.9-4.9-5.4-13.8,0.1-19c0,0,1.5,1.3,1.5,1.3
		c-3.5,4.1-4.9,11.1,0.7,14c8.7,4.4,23.7-2.8,24.7-12.5c0-0.7-0.2-1.3-0.4-1.8L269.4,306.5L269.4,306.5z"/>
</g>
<g id="XMLID_00000183239107315202952050000003001437832128364683_">
	<g>
		<polygon class="st1" points="259.8,292.1 271.2,305 258.1,310 		"/>
	</g>
	<g>
		<polygon class="st2" points="259.8,292.1 271.2,305 258.1,310 		"/>
	</g>
</g>
<g>
	<path class="st1" d="M189.5,96.9c-1.1-3.3-4.9-4.5-8.3-5c-4.2-0.5-8.8,0.5-12.7,2.6c-5.5,2.8-10.4,10.1-4.7,15.2
		c1.7,1.5,3.9,2.5,6.2,3c0,0-0.3,2-0.3,2c-2.6-0.3-5.3-1-7.7-2.6c-5.4-3.5-6-10.9-2.5-16.1c3.1-5,8.1-8.3,13.5-10.1
		c8.7-3.1,21-1.8,25.4,7.6C198.3,93.4,189.5,96.9,189.5,96.9L189.5,96.9z"/>
</g>
<g id="XMLID_00000120556800561906068490000001757999353350012596_">
	<g>
		<polygon class="st1" points="199.9,110.8 200.6,93.4 187.4,97.9 		"/>
	</g>
	<g>
		<polygon class="st2" points="199.9,110.8 200.6,93.4 187.4,97.9 		"/>
	</g>
</g>
<g>
	<polygon class="st3" points="278.3,270.2 190.3,284.2 152.6,145.1 233.7,135.2 	"/>
</g>
<g id="XMLID_00000057850155707761909920000016976832951095327132_">
	<g>
		<path class="st1" d="M265.1,250.5c0.5,1.6-0.2,3.2-1.6,3.8c-0.1,0-0.1,0.1-0.2,0.1l-1.4,0.2l-23.2,3.6v0l10.2-57.7L265.1,250.5z"
			/>
		<polygon class="st4" points="239,170.2 248.8,200.5 238.7,258.2 238.7,258.2 221.9,260.8 		"/>
		<path class="st1" d="M226.7,143.5c1.9-0.2,3.9,0.9,4.4,2.6l0,0.1l7.8,24.1l-17,90.5l-21.3,3.3L225,143.7v0L226.7,143.5z"/>
		<path class="st4" d="M225,143.7L225,143.7l-24.4,120.4l-4.8,0.7c-0.3,0-0.5,0.1-0.8,0c-1.8-0.1-3.5-1.3-4-3.1l-4.1-14.9l0.1,0
			l23.4-101.3l0,0L225,143.7z"/>
		<polygon class="st1" points="210.4,145.5 210.4,145.5 187,246.8 187,246.9 176.2,207.9 176.3,207.9 190.3,148 190.3,148 		"/>
		<polygon class="st4" points="190.3,148 190.3,148 176.3,207.9 176.2,207.9 169.1,182 169.1,182 176.5,149.7 176.5,149.7 		"/>
		<path class="st1" d="M176.5,149.7L176.5,149.7l-7.4,32.3l0,0l-7.5-27.3c-0.4-1.5,0.5-2.9,2-3.4c0.2-0.1,0.4-0.1,0.7-0.1
			L176.5,149.7z"/>
	</g>
	<g>
		<path class="st5" d="M226.4,143.5c0.1,0,0.2,0,0.3-0.1l-1.6,0.2l-14.6,1.8l-20.1,2.5l-13.8,1.7l-12.2,1.5c-0.2,0-0.5,0.1-0.7,0.1
			c-1.5,0.5-2.4,1.9-2,3.4l7.5,27.3l7.1,25.9l10.7,38.9l4.1,14.9c0.5,1.8,2.2,3,4,3.1c0.3,0,0.5,0,0.8,0l4.8-0.7l21.3-3.3l16.7-2.6
			l23.2-3.6l1.4-0.2c0.1,0,0.1-0.1,0.2-0.1c1.4-0.7,2.1-2.2,1.6-3.8l-16.3-50l-9.9-30.2l-7.8-24.1l0-0.1c-0.6-1.7-2.5-2.9-4.4-2.6"
			/>
	</g>
</g>
<path class="st6" d="M239,267.1c1.1,3.7-1.1,7.2-4.9,7.8c-3.8,0.6-7.8-1.9-8.9-5.6c-1.1-3.7,1.1-7.1,4.9-7.7
	C233.9,260.9,237.9,263.4,239,267.1z"/>
</svg>
