<?xml version="1.0" encoding="utf-8"?>
<!-- Generator: Adobe Illustrator 27.3.1, SVG Export Plug-In . SVG Version: 6.00 Build 0)  -->
<svg version="1.1" xmlns="http://www.w3.org/2000/svg" xmlns:xlink="http://www.w3.org/1999/xlink" x="0px" y="0px"
	 viewBox="0 0 512 512" style="enable-background:new 0 0 512 512;" xml:space="preserve">
<style type="text/css">
	.st0{fill:none;stroke:#231F20;stroke-width:5;stroke-miterlimit:10;}
	.st1{fill:#231F20;}
	.st2{fill:none;stroke:#231F20;stroke-width:2;stroke-miterlimit:10;}
	.st3{fill:#FFFFFF;stroke:#231F20;stroke-width:2;stroke-miterlimit:10;}
	.st4{fill:#FFFFFF;}
	.st5{fill:#6D6E71;}
	.st6{fill:none;stroke:#231F20;stroke-miterlimit:10;}
</style>
<g id="Layer_4">
	<line class="st0" x1="181.1" y1="90.7" x2="295" y2="419"/>
	<g>
		<path class="st1" d="M325.6,400.1c3.1,9.9-3.8,19.7-11.3,25.1c-10.5,7.5-24.2,10.9-36.8,7.7c-16.1-4.4-18.7-19.3-6.9-30.3
			c0,0,1.4,1.4,1.4,1.4c-4.9,5.2-8.3,13.7-2.8,19.5c10.3,10,30.8,4.1,40.4-4.3c4.5-4.1,9.2-9.9,7.1-16.1
			C316.6,403.2,325.6,400.1,325.6,400.1L325.6,400.1z"/>
	</g>
	<line class="st2" x1="294.3" y1="417.2" x2="295.7" y2="416.7"/>
	<g id="XMLID_00000183239107315202952050000003001437832128364683_">
		<g>
			<polygon class="st1" points="312.7,377.8 331.5,397.3 309.9,404.7 			"/>
		</g>
		<g>
			<polygon class="st2" points="312.7,377.8 331.5,397.3 309.9,404.7 			"/>
		</g>
	</g>
	<g>
		<path class="st1" d="M145.6,106.3c-2.2-10.2,5.5-19.3,13.5-24c12.6-7.4,30.6-9.7,43.2-1.3c11,7.8,7.9,20.4-1.7,27.7
			c0,0-1.3-1.5-1.3-1.5c5.3-4.7,9.5-13,4.6-19.2c-9.4-10.8-30.3-6.9-40.6,0.7c-4.9,3.7-10,9.1-8.5,15.4
			C154.8,104,145.6,106.3,145.6,106.3L145.6,106.3z"/>
	</g>
	<g id="XMLID_00000120556800561906068490000001757999353350012596_">
		<g>
			<polygon class="st1" points="156.4,129.7 139.5,108.6 161.6,103.1 			"/>
		</g>
		<g>
			<polygon class="st2" points="156.4,129.7 139.5,108.6 161.6,103.1 			"/>
		</g>
	</g>
</g>
<g id="Layer_2">
</g>
<g id="Layer_1">
</g>
<g id="Layer_3">
	<g>
		<polygon class="st3" points="343.2,344.9 198.4,365.9 136.4,156.3 269.8,141.5 		"/>
		<path class="st3" d="M278.5,340.2c1.9,5.6-1.7,10.8-8,11.7c-6.3,0.9-12.9-2.9-14.7-8.5c-1.8-5.6,1.8-10.8,8.1-11.7
			C270.2,330.9,276.7,334.6,278.5,340.2z"/>
		<g id="XMLID_00000057850155707761909920000016976832951095327132_">
			<g>
				<path class="st4" d="M278,326.7l16.8-86.9l26.8,75.3c0.9,2.5-0.3,4.8-2.6,5.7c-0.1,0-0.2,0.1-0.4,0.2l-2.3,0.3L278,326.7z"/>
				<polygon class="st5" points="250.5,330.6 278.5,194.3 294.7,239.8 278,326.7 				"/>
				<path class="st4" d="M265.6,158l12.9,36.3l-28,136.4l-35.1,5l40.2-181.2l0,0l2.7-0.3C261.4,153.6,264.7,155.4,265.6,158
					L265.6,158z"/>
				<path class="st5" d="M255.6,154.3l-40.2,181.2l-7.8,1.1c-0.4,0.1-0.8,0.1-1.2,0.1c-3-0.1-5.8-2-6.6-4.6l-6.8-22.4l0.1,0
					l38.5-152.6l0-0.1L255.6,154.3L255.6,154.3z"/>
				<polygon class="st4" points="198.4,160.8 231.5,157 231.5,157.1 193,309.6 192.9,309.7 175.3,251 175.3,251 198.4,160.8 				"/>
				<polygon class="st5" points="175.7,163.3 198.4,160.8 198.4,160.8 175.3,251 175.3,251 163.5,212 163.6,212 175.7,163.4 				"/>
				<path class="st4" d="M175.7,163.4L163.6,212l0,0l-12.4-41.1c-0.7-2.3,0.8-4.4,3.3-5.1c0.4-0.1,0.7-0.2,1.1-0.2L175.7,163.4
					L175.7,163.4z"/>
			</g>
			<g>
				<path class="st6" d="M257.8,154.1c0.2,0,0.4-0.1,0.5-0.1l-2.7,0.3l-24.1,2.7l-33.1,3.8l-22.7,2.6l-20.1,2.3
					c-0.4,0-0.8,0.1-1.1,0.2c-2.6,0.7-4,2.8-3.3,5.1l12.4,41.1l11.7,39l17.6,58.6l6.8,22.4c0.8,2.6,3.6,4.6,6.6,4.6
					c0.4,0,0.8,0,1.2-0.1l7.8-1.1l35.1-5l27.5-3.9l38.2-5.4l2.3-0.3c0.1,0,0.2-0.1,0.4-0.2c2.3-1,3.5-3.3,2.6-5.7l-26.8-75.3
					l-16.2-45.5L265.6,158l0-0.1c-0.9-2.5-4.1-4.3-7.3-4"/>
			</g>
		</g>
	</g>
</g>
</svg>
