<?xml version="1.0" encoding="utf-8"?>
<!-- Generator: Adobe Illustrator 27.3.1, SVG Export Plug-In . SVG Version: 6.00 Build 0)  -->
<svg version="1.1" id="Layer_1" xmlns="http://www.w3.org/2000/svg" xmlns:xlink="http://www.w3.org/1999/xlink" x="0px" y="0px"
	 viewBox="0 0 432 432" style="enable-background:new 0 0 432 432;" xml:space="preserve">
<style type="text/css">
	.st0{opacity:0.5;}
	.st1{fill:#0C0035;}
	.st2{fill:#FFFFFF;}
	.st3{opacity:0.3;fill:#00AEEF;enable-background:new    ;}
	.st4{opacity:0.3;fill:#2E3192;enable-background:new    ;}
	.st5{fill:#C49A6C;}
	.st6{fill:#EFFFAA;}
	.st7{fill:#A97C50;}
</style>
<g id="Layer_1_00000173130778879052918320000002631874540229847734_" class="st0">
	<rect x="140.6" y="54.8" class="st1" width="161.4" height="328.5"/>
</g>
<g id="Layer_2_00000045579231269072809340000015458196761744680122_">
	<rect x="146.8" y="60.8" class="st2" width="149.1" height="282.9"/>
</g>
<g id="Layer_3">
	<ellipse class="st2" cx="221.4" cy="364.5" rx="13.8" ry="13.7"/>
</g>
<g id="Layer_6">
	<rect x="146.8" y="60.8" class="st3" width="74.6" height="282.9"/>
	<rect x="221.4" y="60.8" class="st4" width="74.6" height="282.9"/>
</g>
<g id="Layer_4">
	<path class="st5" d="M91,298.1c0,0,21.2-8.8,29.6-16.7s26.6-19.4,26.6-19.4l11.6-4.6l16.4-2.8c0,0,9.6-1,15.8,1.2
		c6.2,2.2,11.9,8.7,11.9,8.7l1.3,7.9c0,0-0.6,4-4.7,10.5c-4.1,6.5-27.7,24.1-27.7,24.1l-41.1,21.9c0,0-17.3,12.7-20.9,18.4
		c-3.6,5.8-15.8,17.6-15.8,17.6l-18.4-62.3L91,298.1z"/>
	<g id="Layer_5">
		<path class="st6" d="M164.8,278.2l21.2-12.7l6.4,3.4c0,0-4.4-3,0.8,4.4s1.6,9.4,1.6,9.4s-8.6,10.5-16.4,14.4
			S164.8,278.2,164.8,278.2z"/>
		<path class="st7" d="M114.1,288.6c1.3,0.8,4.7,4.1,9.1,13.9s6.2,15.2,6.7,20.1c0.6,4.9-15-30.6-15-30.6"/>
		<path class="st7" d="M110.4,297.3c1.1,0.7,3.8,3.5,6.8,11.4s4,12.3,4.1,16.2c0,3.9-10.4-24.8-10.4-24.8"/>
	</g>
	<g>
		<g>
			<path d="M236.1,135.6v-10.7h1.6v10.7H236.1z M237.6,131.6v-1.4h2.2c0.6,0,1.1-0.2,1.4-0.5s0.5-0.8,0.5-1.3c0-0.6-0.2-1.1-0.5-1.5
				c-0.3-0.3-0.8-0.5-1.4-0.5h-2.2l-0.2-1.4h2.4c1.1,0,2,0.3,2.6,0.8c0.6,0.6,0.9,1.4,0.9,2.4c0,1.1-0.3,1.9-0.9,2.5
				s-1.5,0.9-2.6,0.9H237.6z M241.9,135.6l-2.4-5h1.7l2.6,5H241.9z"/>
			<path d="M245.4,135.6v-1.4h3.2v1.4H245.4z M245.8,129v-1.4h4.2v1.4H245.8z M249.2,126.4c-0.3,0-0.6-0.1-0.8-0.3s-0.3-0.5-0.3-0.8
				s0.1-0.6,0.3-0.8s0.5-0.3,0.8-0.3s0.6,0.1,0.8,0.3s0.3,0.5,0.3,0.8s-0.1,0.6-0.3,0.8S249.5,126.4,249.2,126.4z M248.4,135.6V128
				h1.6v7.6H248.4z M249.9,135.6v-1.4h2.6v1.4H249.9z"/>
			<path d="M257.2,135.8c-1.1,0-1.8-0.3-2.4-1s-0.8-1.7-0.8-3c0-1.4,0.3-2.4,0.8-3.2c0.5-0.7,1.3-1.1,2.4-1.1c0.6,0,1.1,0.1,1.5,0.4
				c0.4,0.3,0.6,0.7,0.7,1.2h0.6l-0.5,2.3c0-0.8-0.2-1.5-0.5-1.9s-0.8-0.6-1.4-0.6s-1.1,0.2-1.5,0.7c-0.3,0.5-0.5,1.2-0.5,2.1
				c0,0.9,0.2,1.6,0.5,2c0.3,0.4,0.8,0.7,1.5,0.7c0.6,0,1.1-0.2,1.4-0.6s0.5-1.1,0.5-1.9l0.5,2.3h-0.7c-0.1,0.5-0.3,0.9-0.6,1.2
				C258.3,135.6,257.8,135.8,257.2,135.8z M254.6,139.2l-0.1-1.5l2.6-0.1c0.8,0,1.4-0.2,1.8-0.7c0.4-0.4,0.6-1,0.6-1.9v-5.9l0.2-1.7
				h1.5v7.3c0,1.4-0.3,2.5-1,3.2s-1.7,1-3.1,1.1L254.6,139.2z"/>
			<path d="M263.6,135.6v-11.3h1.6v11.3H263.6z M268.5,135.6v-5.2c0-0.5-0.1-0.9-0.4-1.2s-0.6-0.4-1.1-0.4c-1.3,0-1.9,0.8-1.9,2.3
				l-0.5-2.1h0.6c0-0.5,0.2-0.9,0.6-1.2c0.4-0.3,0.9-0.4,1.5-0.4c0.8,0,1.5,0.3,2,0.8c0.5,0.5,0.7,1.2,0.7,2.2v5.2L268.5,135.6
				L268.5,135.6z"/>
			<path d="M272,129v-1.4h7.3v1.4H272z M274,131.9v-6.7h1.6v6.7H274z M277.4,135.8c-1.2,0-2.1-0.3-2.6-0.8s-0.8-1.3-0.8-2.4v-1.4
				h1.6v1.3c0,0.6,0.2,1.1,0.5,1.4s0.8,0.4,1.5,0.4c0.3,0,0.5,0,0.8,0s0.6-0.1,1-0.1l0.2,1.4c-0.4,0.1-0.7,0.1-1,0.1
				S277.8,135.8,277.4,135.8z"/>
		</g>
	</g>
	<g>
		<g>
			<path d="M166,135.6v-10.7h1.6v10.7H166z M166,135.6v-1.4h7.1v1.4H166z"/>
			<path d="M179.2,135.8c-1.4,0-2.4-0.4-3.2-1.1c-0.7-0.7-1.1-1.8-1.1-3.1s0.3-2.3,0.9-3.1c0.6-0.8,1.5-1.1,2.7-1.1
				c1.1,0,1.9,0.3,2.5,1c0.6,0.7,0.9,1.6,0.9,2.9c0,0.4,0,0.7,0,1h-5.6v-1.2h4.2c0-0.7-0.2-1.3-0.5-1.7s-0.8-0.6-1.4-0.6
				c-0.7,0-1.2,0.2-1.6,0.7c-0.4,0.5-0.6,1.1-0.6,2s0.3,1.6,0.8,2.1s1.3,0.7,2.2,0.7c0.3,0,0.7,0,1-0.1c0.3,0,0.7-0.1,1-0.2l0.2,1.4
				c-0.5,0.1-0.9,0.1-1.3,0.2S179.5,135.8,179.2,135.8z"/>
			<path d="M183.5,130.8v-1.4h7.4v1.4H183.5z M186,135.6v-7.3c0-2.8,1.3-4.2,3.8-4.2c0.6,0,1.1,0.1,1.7,0.2l-0.2,1.4
				c-0.3,0-0.6-0.1-0.8-0.1s-0.5,0-0.7,0c-1.4,0-2.2,0.9-2.2,2.6v7.4L186,135.6L186,135.6z"/>
			<path d="M192.6,129v-1.4h7.3v1.4H192.6z M194.6,131.9v-6.7h1.6v6.7H194.6z M198.1,135.8c-1.2,0-2.1-0.3-2.6-0.8s-0.8-1.3-0.8-2.4
				v-1.4h1.6v1.3c0,0.6,0.2,1.1,0.5,1.4s0.8,0.4,1.5,0.4c0.3,0,0.5,0,0.8,0s0.6-0.1,1-0.1l0.2,1.4c-0.4,0.1-0.7,0.1-1,0.1
				S198.5,135.8,198.1,135.8z"/>
		</g>
	</g>
	<path class="st5" d="M354.5,298.1c0,0-21.2-8.8-29.6-16.7S298.3,262,298.3,262l-11.6-4.6l-16.4-2.8c0,0-9.6-1-15.8,1.2
		c-6.2,2.2-11.9,8.7-11.9,8.7l-1.3,7.9c0,0,0.6,4,4.7,10.5c4.1,6.5,27.7,24.1,27.7,24.1l41.1,21.9c0,0,17.3,12.7,20.9,18.4
		c3.6,5.8,15.8,17.6,15.8,17.6l18.4-62.3L354.5,298.1z"/>
	<g id="Layer_5_00000027574600373765122190000000754362678163364507_">
		<path class="st6" d="M278.4,276.2l-21.2-12.7l-6.4,3.4c0,0,4.4-3-0.8,4.4s-1.6,9.4-1.6,9.4s8.6,10.5,16.4,14.4
			S278.4,276.2,278.4,276.2z"/>
		<path class="st7" d="M329.1,286.6c-1.3,0.8-4.7,4.1-9.1,13.9c-4.4,9.8-6.2,15.2-6.7,20.1c-0.6,4.9,15-30.6,15-30.6"/>
		<path class="st7" d="M332.8,295.3c-1.1,0.7-3.8,3.5-6.8,11.4s-4,12.3-4.1,16.2c0,3.9,10.4-24.8,10.4-24.8"/>
	</g>
</g>
</svg>
